<svg width="189" height="56" viewBox="0 0 189 56" fill="none" xmlns="http://www.w3.org/2000/svg">
<rect width="189" height="56" rx="28" fill="#C31313"/>
<path d="M43.122 33.091C42.264 33.091 41.4753 32.8917 40.756 32.493C40.0453 32.0943 39.4777 31.5397 39.053 30.829C38.637 30.1097 38.429 29.3037 38.429 28.411C38.429 27.5183 38.637 26.7167 39.053 26.006C39.4777 25.2953 40.0453 24.7407 40.756 24.342C41.4753 23.9433 42.264 23.744 43.122 23.744C43.98 23.744 44.7643 23.9433 45.475 24.342C46.1943 24.7407 46.7577 25.2953 47.165 26.006C47.581 26.7167 47.789 27.5183 47.789 28.411C47.789 29.3037 47.581 30.1097 47.165 30.829C46.749 31.5397 46.1857 32.0943 45.475 32.493C44.7643 32.8917 43.98 33.091 43.122 33.091ZM43.122 31.063C43.85 31.063 44.4307 30.8203 44.864 30.335C45.306 29.8497 45.527 29.2083 45.527 28.411C45.527 27.605 45.306 26.9637 44.864 26.487C44.4307 26.0017 43.85 25.759 43.122 25.759C42.3853 25.759 41.796 25.9973 41.354 26.474C40.9207 26.9507 40.704 27.5963 40.704 28.411C40.704 29.217 40.9207 29.8627 41.354 30.348C41.796 30.8247 42.3853 31.063 43.122 31.063ZM53.4197 33L51.5217 29.555H50.9887V33H48.7657V23.874H52.4967C53.2161 23.874 53.8271 23.9997 54.3297 24.251C54.8411 24.5023 55.2224 24.849 55.4737 25.291C55.7251 25.7243 55.8507 26.2097 55.8507 26.747C55.8507 27.3537 55.6774 27.8953 55.3307 28.372C54.9927 28.8487 54.4901 29.1867 53.8227 29.386L55.9287 33H53.4197ZM50.9887 27.982H52.3667C52.7741 27.982 53.0774 27.8823 53.2767 27.683C53.4847 27.4837 53.5887 27.202 53.5887 26.838C53.5887 26.4913 53.4847 26.2183 53.2767 26.019C53.0774 25.8197 52.7741 25.72 52.3667 25.72H50.9887V27.982ZM60.4052 23.874C61.3672 23.874 62.2079 24.0647 62.9272 24.446C63.6465 24.8273 64.2012 25.3647 64.5912 26.058C64.9899 26.7427 65.1892 27.5357 65.1892 28.437C65.1892 29.3297 64.9899 30.1227 64.5912 30.816C64.2012 31.5093 63.6422 32.0467 62.9142 32.428C62.1949 32.8093 61.3585 33 60.4052 33H56.9862V23.874H60.4052ZM60.2622 31.076C61.1029 31.076 61.7572 30.8463 62.2252 30.387C62.6932 29.9277 62.9272 29.2777 62.9272 28.437C62.9272 27.5963 62.6932 26.942 62.2252 26.474C61.7572 26.006 61.1029 25.772 60.2622 25.772H59.2092V31.076H60.2622ZM68.3945 25.655V27.501H71.3715V29.217H68.3945V31.219H71.7615V33H66.1715V23.874H71.7615V25.655H68.3945ZM77.5987 33L75.7007 29.555H75.1677V33H72.9447V23.874H76.6757C77.395 23.874 78.006 23.9997 78.5087 24.251C79.02 24.5023 79.4014 24.849 79.6527 25.291C79.904 25.7243 80.0297 26.2097 80.0297 26.747C80.0297 27.3537 79.8564 27.8953 79.5097 28.372C79.1717 28.8487 78.669 29.1867 78.0017 29.386L80.1077 33H77.5987ZM75.1677 27.982H76.5457C76.953 27.982 77.2564 27.8823 77.4557 27.683C77.6637 27.4837 77.7677 27.202 77.7677 26.838C77.7677 26.4913 77.6637 26.2183 77.4557 26.019C77.2564 25.8197 76.953 25.72 76.5457 25.72H75.1677V27.982ZM91.8241 33H89.6011L85.8831 27.371V33H83.6601V23.874H85.8831L89.6011 29.529V23.874H91.8241V33ZM97.4915 33.091C96.6335 33.091 95.8448 32.8917 95.1255 32.493C94.4148 32.0943 93.8471 31.5397 93.4225 30.829C93.0065 30.1097 92.7985 29.3037 92.7985 28.411C92.7985 27.5183 93.0065 26.7167 93.4225 26.006C93.8471 25.2953 94.4148 24.7407 95.1255 24.342C95.8448 23.9433 96.6335 23.744 97.4915 23.744C98.3495 23.744 99.1338 23.9433 99.8445 24.342C100.564 24.7407 101.127 25.2953 101.534 26.006C101.95 26.7167 102.158 27.5183 102.158 28.411C102.158 29.3037 101.95 30.1097 101.534 30.829C101.118 31.5397 100.555 32.0943 99.8445 32.493C99.1338 32.8917 98.3495 33.091 97.4915 33.091ZM97.4915 31.063C98.2195 31.063 98.8001 30.8203 99.2335 30.335C99.6755 29.8497 99.8965 29.2083 99.8965 28.411C99.8965 27.605 99.6755 26.9637 99.2335 26.487C98.8001 26.0017 98.2195 25.759 97.4915 25.759C96.7548 25.759 96.1655 25.9973 95.7235 26.474C95.2901 26.9507 95.0735 27.5963 95.0735 28.411C95.0735 29.217 95.2901 29.8627 95.7235 30.348C96.1655 30.8247 96.7548 31.063 97.4915 31.063ZM115.693 23.874L113.314 33H110.623L109.167 26.994L107.659 33H104.968L102.654 23.874H105.033L106.346 30.517L107.971 23.874H110.415L111.975 30.517L113.301 23.874H115.693Z" fill="white"/>
<path d="M137.586 22.586C137.211 22.9611 137 23.4697 137 24C137 24.5303 137.211 25.0389 137.586 25.414L139.172 27H131.928C131.398 27 130.889 27.2107 130.514 27.5858C130.139 27.9609 129.928 28.4696 129.928 29C129.928 29.5304 130.139 30.0391 130.514 30.4142C130.889 30.7893 131.398 31 131.928 31H139.172L137.586 32.586C137.395 32.7705 137.243 32.9912 137.138 33.2352C137.033 33.4792 136.978 33.7416 136.975 34.0072C136.973 34.2728 137.024 34.5361 137.124 34.7819C137.225 35.0277 137.373 35.251 137.561 35.4388C137.749 35.6266 137.972 35.7751 138.218 35.8756C138.464 35.9762 138.727 36.0268 138.993 36.0245C139.258 36.0222 139.521 35.967 139.765 35.8622C140.009 35.7574 140.229 35.605 140.414 35.414L146.828 29L140.414 22.586C140.039 22.2111 139.53 22.0004 139 22.0004C138.47 22.0004 137.961 22.2111 137.586 22.586Z" fill="white"/>
</svg>
