<svg width="220" height="62" viewBox="0 0 220 62" fill="none" xmlns="http://www.w3.org/2000/svg">
<rect width="62" height="62" rx="6" fill="#C31313"/>
<path d="M19.4534 15.7864C19.4826 15.4795 19.6292 15.1957 19.8627 14.9943C20.0961 14.793 20.3983 14.6895 20.7062 14.7056C21.0141 14.7217 21.3038 14.8562 21.5149 15.0808C21.7261 15.3055 21.8423 15.603 21.8393 15.9113V23.8736C21.8393 24.1436 21.9465 24.4025 22.1374 24.5934C22.3283 24.7843 22.5872 24.8915 22.8571 24.8915C23.1271 24.8915 23.386 24.7843 23.5769 24.5934C23.7678 24.4025 23.875 24.1436 23.875 23.8736V15.7321C23.875 15.4622 23.9822 15.2033 24.1731 15.0124C24.364 14.8215 24.6229 14.7143 24.8928 14.7143C25.1628 14.7143 25.4217 14.8215 25.6126 15.0124C25.8035 15.2033 25.9107 15.4622 25.9107 15.7321V23.8736C25.9107 24.1436 26.0179 24.4025 26.2088 24.5934C26.3997 24.7843 26.6586 24.8915 26.9286 24.8915C27.1985 24.8915 27.4574 24.7843 27.6483 24.5934C27.8392 24.4025 27.9464 24.1436 27.9464 23.8736V15.9113C27.9499 15.6071 28.0692 15.3156 28.2799 15.0961C28.4906 14.8767 28.777 14.7457 29.0808 14.7298C29.3846 14.7139 29.6831 14.8143 29.9156 15.0105C30.148 15.2068 30.297 15.4842 30.3323 15.7864C30.4354 16.7663 31 22.2804 31 24.8929C31 26.7087 30.2061 28.34 28.9507 29.4583C28.4974 29.86 28.2857 30.2739 28.2857 30.6214V31.608L28.2871 31.6718C28.3441 32.4847 28.9643 41.5613 28.9643 43.2143C28.9643 43.749 28.859 44.2784 28.6544 44.7724C28.4497 45.2663 28.1499 45.7152 27.7718 46.0932C27.3937 46.4713 26.9449 46.7712 26.4509 46.9758C25.9569 47.1804 25.4275 47.2857 24.8928 47.2857C24.3582 47.2857 23.8287 47.1804 23.3348 46.9758C22.8408 46.7712 22.392 46.4713 22.0139 46.0932C21.6358 45.7152 21.3359 45.2663 21.1313 44.7724C20.9267 44.2784 20.8214 43.749 20.8214 43.2143C20.8214 41.5613 21.443 32.4847 21.4986 31.6718L21.5 31.608V30.6214C21.5 30.2753 21.2883 29.8614 20.835 29.4583C20.1904 28.8852 19.6745 28.182 19.3213 27.3951C18.968 26.6082 18.7855 25.7554 18.7857 24.8929C18.7857 22.2804 19.3503 16.7663 19.4534 15.7864ZM37.7246 31L37.6812 31.7546C37.6174 32.8634 37.5319 34.3603 37.4478 35.9101C37.2795 38.9868 37.1071 42.3349 37.1071 43.2143C37.1071 43.749 37.2124 44.2784 37.4171 44.7724C37.6217 45.2663 37.9216 45.7152 38.2996 46.0932C38.6777 46.4713 39.1265 46.7712 39.6205 46.9758C40.1145 47.1804 40.6439 47.2857 41.1786 47.2857C41.7132 47.2857 42.2427 47.1804 42.7366 46.9758C43.2306 46.7712 43.6794 46.4713 44.0575 46.0932C44.4356 45.7152 44.7355 45.2663 44.9401 44.7724C45.1447 44.2784 45.25 43.749 45.25 43.2143C45.25 42.2358 45.0356 38.4996 44.851 35.2682L44.8456 35.1786C44.6976 32.6014 44.5714 30.3893 44.5714 29.9821V15.7321C44.5714 15.4622 44.4642 15.2033 44.2733 15.0124C44.0824 14.8215 43.8235 14.7143 43.5536 14.7143H42.875C40.4454 14.7143 38.1154 15.6794 36.3974 17.3974C34.6794 19.1154 33.7143 21.4454 33.7143 23.875V28.625C33.7143 29.936 34.7783 31 36.0893 31H37.7246Z" fill="white"/>
<path d="M102 19.664V23.28H92.688V29.008H99.824V32.56H92.688V42H88.208V19.664H102ZM112.409 42.288C110.702 42.288 109.166 41.9147 107.801 41.168C106.435 40.4 105.358 39.3227 104.569 37.936C103.801 36.5493 103.417 34.9493 103.417 33.136C103.417 31.3227 103.811 29.7227 104.601 28.336C105.411 26.9493 106.51 25.8827 107.897 25.136C109.283 24.368 110.83 23.984 112.537 23.984C114.243 23.984 115.79 24.368 117.177 25.136C118.563 25.8827 119.651 26.9493 120.441 28.336C121.251 29.7227 121.657 31.3227 121.657 33.136C121.657 34.9493 121.241 36.5493 120.409 37.936C119.598 39.3227 118.489 40.4 117.081 41.168C115.694 41.9147 114.137 42.288 112.409 42.288ZM112.409 38.384C113.219 38.384 113.977 38.192 114.681 37.808C115.406 37.4027 115.982 36.8053 116.409 36.016C116.835 35.2267 117.049 34.2667 117.049 33.136C117.049 31.4507 116.601 30.16 115.705 29.264C114.83 28.3467 113.753 27.888 112.473 27.888C111.193 27.888 110.115 28.3467 109.241 29.264C108.387 30.16 107.961 31.4507 107.961 33.136C107.961 34.8213 108.377 36.1227 109.209 37.04C110.062 37.936 111.129 38.384 112.409 38.384ZM132.175 42.288C130.468 42.288 128.932 41.9147 127.567 41.168C126.202 40.4 125.124 39.3227 124.335 37.936C123.567 36.5493 123.183 34.9493 123.183 33.136C123.183 31.3227 123.578 29.7227 124.367 28.336C125.178 26.9493 126.276 25.8827 127.663 25.136C129.05 24.368 130.596 23.984 132.303 23.984C134.01 23.984 135.556 24.368 136.943 25.136C138.33 25.8827 139.418 26.9493 140.207 28.336C141.018 29.7227 141.423 31.3227 141.423 33.136C141.423 34.9493 141.007 36.5493 140.175 37.936C139.364 39.3227 138.255 40.4 136.847 41.168C135.46 41.9147 133.903 42.288 132.175 42.288ZM132.175 38.384C132.986 38.384 133.743 38.192 134.447 37.808C135.172 37.4027 135.748 36.8053 136.175 36.016C136.602 35.2267 136.815 34.2667 136.815 33.136C136.815 31.4507 136.367 30.16 135.471 29.264C134.596 28.3467 133.519 27.888 132.239 27.888C130.959 27.888 129.882 28.3467 129.007 29.264C128.154 30.16 127.727 31.4507 127.727 33.136C127.727 34.8213 128.143 36.1227 128.975 37.04C129.828 37.936 130.895 38.384 132.175 38.384ZM142.917 33.072C142.917 31.28 143.269 29.6907 143.973 28.304C144.699 26.9173 145.68 25.8507 146.917 25.104C148.155 24.3573 149.531 23.984 151.045 23.984C152.197 23.984 153.296 24.24 154.341 24.752C155.387 25.2427 156.219 25.904 156.837 26.736V18.32H161.381V42H156.837V39.376C156.283 40.2507 155.504 40.9547 154.501 41.488C153.499 42.0213 152.336 42.288 151.013 42.288C149.52 42.288 148.155 41.904 146.917 41.136C145.68 40.368 144.699 39.2907 143.973 37.904C143.269 36.496 142.917 34.8853 142.917 33.072ZM156.869 33.136C156.869 32.048 156.656 31.12 156.229 30.352C155.803 29.5627 155.227 28.9653 154.501 28.56C153.776 28.1333 152.997 27.92 152.165 27.92C151.333 27.92 150.565 28.1227 149.861 28.528C149.157 28.9333 148.581 29.5307 148.133 30.32C147.707 31.088 147.493 32.0053 147.493 33.072C147.493 34.1387 147.707 35.0773 148.133 35.888C148.581 36.6773 149.157 37.2853 149.861 37.712C150.587 38.1387 151.355 38.352 152.165 38.352C152.997 38.352 153.776 38.1493 154.501 37.744C155.227 37.3173 155.803 36.72 156.229 35.952C156.656 35.1627 156.869 34.224 156.869 33.136Z" fill="black"/>
<path d="M177.789 30.544C179.047 30.7787 180.082 31.408 180.893 32.432C181.703 33.456 182.109 34.6293 182.109 35.952C182.109 37.1467 181.81 38.2027 181.213 39.12C180.637 40.016 179.794 40.72 178.685 41.232C177.575 41.744 176.263 42 174.749 42H165.117V19.664H174.333C175.847 19.664 177.149 19.9093 178.237 20.4C179.346 20.8907 180.178 21.5733 180.733 22.448C181.309 23.3227 181.597 24.3147 181.597 25.424C181.597 26.7253 181.245 27.8133 180.541 28.688C179.858 29.5627 178.941 30.1813 177.789 30.544ZM169.597 28.88H173.693C174.759 28.88 175.581 28.6453 176.157 28.176C176.733 27.6853 177.021 26.992 177.021 26.096C177.021 25.2 176.733 24.5067 176.157 24.016C175.581 23.5253 174.759 23.28 173.693 23.28H169.597V28.88ZM174.109 38.352C175.197 38.352 176.039 38.096 176.637 37.584C177.255 37.072 177.565 36.3467 177.565 35.408C177.565 34.448 177.245 33.7013 176.605 33.168C175.965 32.6133 175.101 32.336 174.013 32.336H169.597V38.352H174.109ZM192.911 42.288C191.205 42.288 189.669 41.9147 188.303 41.168C186.938 40.4 185.861 39.3227 185.071 37.936C184.303 36.5493 183.919 34.9493 183.919 33.136C183.919 31.3227 184.314 29.7227 185.103 28.336C185.914 26.9493 187.013 25.8827 188.399 25.136C189.786 24.368 191.333 23.984 193.039 23.984C194.746 23.984 196.293 24.368 197.679 25.136C199.066 25.8827 200.154 26.9493 200.943 28.336C201.754 29.7227 202.159 31.3227 202.159 33.136C202.159 34.9493 201.743 36.5493 200.911 37.936C200.101 39.3227 198.991 40.4 197.583 41.168C196.197 41.9147 194.639 42.288 192.911 42.288ZM192.911 38.384C193.722 38.384 194.479 38.192 195.183 37.808C195.909 37.4027 196.485 36.8053 196.911 36.016C197.338 35.2267 197.551 34.2667 197.551 33.136C197.551 31.4507 197.103 30.16 196.207 29.264C195.333 28.3467 194.255 27.888 192.975 27.888C191.695 27.888 190.618 28.3467 189.743 29.264C188.89 30.16 188.463 31.4507 188.463 33.136C188.463 34.8213 188.879 36.1227 189.711 37.04C190.565 37.936 191.631 38.384 192.911 38.384ZM214.598 42L210.95 36.496L207.718 42H202.918L208.71 33.104L202.854 24.272H207.91L211.526 29.744L214.79 24.272H219.59L213.766 33.104L219.654 42H214.598Z" fill="#C31313"/>
</svg>
