<svg width="22" height="22" viewBox="0 0 22 22" fill="none" xmlns="http://www.w3.org/2000/svg">
<path d="M20 20L15.657 15.657M15.657 15.657C16.3999 14.9141 16.9892 14.0322 17.3912 13.0615C17.7933 12.0909 18.0002 11.0506 18.0002 9.99999C18.0002 8.94939 17.7933 7.90908 17.3913 6.93845C16.9892 5.96782 16.3999 5.08588 15.657 4.34299C14.9141 3.6001 14.0322 3.01081 13.0616 2.60877C12.0909 2.20672 11.0506 1.99979 10 1.99979C8.94942 1.99979 7.90911 2.20672 6.93848 2.60877C5.96785 3.01081 5.08591 3.6001 4.34302 4.34299C2.84269 5.84332 1.99982 7.87821 1.99982 9.99999C1.99982 12.1218 2.84269 14.1567 4.34302 15.657C5.84335 17.1573 7.87824 18.0002 10 18.0002C12.1218 18.0002 14.1567 17.1573 15.657 15.657Z" stroke="black" stroke-width="2.5" stroke-linecap="round" stroke-linejoin="round"/>
</svg>
